<svg xmlns="http://www.w3.org/2000/svg" xmlns:xlink="http://www.w3.org/1999/xlink" version="1.1" width="256px" height="230px" viewBox="-0.5 -0.5 256 230"><defs/><g><path d="M 128 6.1 L 188.95 35.36 L 188.95 98.73 L 128 128 L 67.05 98.73 L 67.05 35.36 Z" fill="#45b1e8" stroke="rgb(0, 0, 0)" stroke-width="12.19" stroke-miterlimit="10" pointer-events="all"/><path d="M 67.05 35.36 L 128 64.63 L 188.95 35.36 M 128 64.63 L 128 128" fill="none" stroke="rgb(0, 0, 0)" stroke-width="12.19" stroke-miterlimit="10" pointer-events="all"/><path d="M 188.95 101.18 L 249.9 130.44 L 249.9 193.81 L 188.95 223.08 L 128 193.81 L 128 130.44 Z" fill="#45b1e8" stroke="rgb(0, 0, 0)" stroke-width="12.19" stroke-miterlimit="10" pointer-events="all"/><path d="M 128 130.44 L 188.95 159.71 L 249.9 130.44 M 188.95 159.71 L 188.95 223.08" fill="none" stroke="rgb(0, 0, 0)" stroke-width="12.19" stroke-miterlimit="10" pointer-events="all"/><path d="M 67.05 101.18 L 128 130.44 L 128 193.81 L 67.05 223.08 L 6.1 193.81 L 6.1 130.44 Z" fill="#45b1e8" stroke="rgb(0, 0, 0)" stroke-width="12.19" stroke-miterlimit="10" pointer-events="all"/><path d="M 6.1 130.44 L 67.05 159.71 L 128 130.44 M 67.05 159.71 L 67.05 223.08" fill="none" stroke="rgb(0, 0, 0)" stroke-width="12.19" stroke-miterlimit="10" pointer-events="all"/></g></svg>